<svg width="24" height="24" viewBox="0 0 24 24" fill="none" xmlns="http://www.w3.org/2000/svg">
<path d="M11.9907 7.3159H3.75737L3.78364 7.34264C3.32701 7.45062 3 7.87192 3 8.35452V18.9666C3 19.5281 3.4422 20.0041 4.01461 20.0041H17.4301C18.0035 20.0041 18.4447 19.5256 18.4447 18.9652V13.0045C18.2075 13.1518 17.9561 13.2769 17.6931 13.3771V18.9652C17.6931 19.1372 17.5622 19.2525 17.4301 19.2525H4.01461C3.88139 19.2525 3.75157 19.1376 3.75157 18.9666V8.35452C3.75157 8.18269 3.88221 8.06747 4.01461 8.06747H4.49585L6.80552 10.418C6.9941 10.61 7.25063 10.7201 7.52079 10.7201H11.9908C11.8991 10.4788 11.8264 10.2276 11.7744 9.96849H7.52079C7.45647 9.96849 7.39186 9.94244 7.3416 9.89128L5.54952 8.06747H11.7744C11.8263 7.80837 11.8991 7.5572 11.9907 7.3159Z" fill="#676767"/>
<path fill-rule="evenodd" clip-rule="evenodd" d="M16.1524 4.75169C13.9033 4.75169 12.0564 6.64839 12.0564 9.01792C12.0564 11.3875 13.9033 13.2842 16.1524 13.2842C18.4015 13.2842 20.2484 11.3875 20.2484 9.01792C20.2484 6.64839 18.4015 4.75169 16.1524 4.75169ZM11.3048 9.01792C11.3048 6.26002 13.462 4.00012 16.1524 4.00012C18.8428 4.00012 21 6.26002 21 9.01792C21 11.7758 18.8428 14.0357 16.1524 14.0357C13.462 14.0357 11.3048 11.7758 11.3048 9.01792ZM16.1524 6.6527C16.3599 6.6527 16.5282 6.82095 16.5282 7.02849V8.64214H18.0689C18.2764 8.64214 18.4447 8.81039 18.4447 9.01792C18.4447 9.22546 18.2764 9.39371 18.0689 9.39371H16.5282V11.0074C16.5282 11.2149 16.3599 11.3831 16.1524 11.3831C15.9449 11.3831 15.7766 11.2149 15.7766 11.0074V9.39371H14.2359C14.0284 9.39371 13.8601 9.22546 13.8601 9.01792C13.8601 8.81038 14.0284 8.64214 14.2359 8.64214H15.7766V7.02849C15.7766 6.82095 15.9449 6.6527 16.1524 6.6527Z" fill="#676767"/>
</svg>
