<svg width="24" height="25" viewBox="0 0 24 25" fill="none" xmlns="http://www.w3.org/2000/svg">
<path fill-rule="evenodd" clip-rule="evenodd" d="M10.1537 3.25781C10.0067 3.25781 9.87249 3.38134 9.87249 3.55245V4.77499L14.1333 4.77448L14.1336 3.55254C14.1336 3.38139 13.9994 3.25781 13.8523 3.25781H10.1537ZM14.6955 5.89942L6.03356 5.90006L6.60687 19.8508C6.61368 20.0164 6.74505 20.1328 6.88786 20.1328H17.1174C17.2603 20.1328 17.3917 20.0163 17.3984 19.8507L17.9667 5.89996L14.6955 5.89942ZM19.0926 5.90006L18.5225 19.8965C18.4918 20.6493 17.8794 21.2578 17.1174 21.2578H6.88786C6.12608 21.2578 5.51375 20.6497 5.48282 19.897L4.90761 5.90006H3.5625C3.25184 5.90006 3 5.64822 3 5.33756C3 5.0269 3.25184 4.77506 3.5625 4.77506H8.74749V3.55245C8.74749 2.77679 9.36877 2.13281 10.1537 2.13281H13.8523C14.6375 2.13281 15.2588 2.77703 15.2586 3.55284L15.2583 4.77451L20.4375 4.77506C20.7482 4.77506 21 5.0269 21 5.33756C21 5.64822 20.7482 5.90006 20.4375 5.90006H19.0926ZM10.3326 8.13281C10.6432 8.13281 10.8951 8.38465 10.8951 8.69531V17.2667C10.8951 17.5774 10.6432 17.8292 10.3326 17.8292C10.0219 17.8292 9.77009 17.5774 9.77009 17.2667V8.69531C9.77009 8.38465 10.0219 8.13281 10.3326 8.13281ZM13.6674 8.13281C13.9781 8.13281 14.2299 8.38465 14.2299 8.69531V17.2667C14.2299 17.5774 13.9781 17.8292 13.6674 17.8292C13.3568 17.8292 13.1049 17.5774 13.1049 17.2667V8.69531C13.1049 8.38465 13.3568 8.13281 13.6674 8.13281Z" fill="#676767"/>
</svg>
