<svg width="24" height="24" viewBox="0 0 24 24" fill="none" xmlns="http://www.w3.org/2000/svg">
<path fill-rule="evenodd" clip-rule="evenodd" d="M15.2148 3.10624C13.1489 2.80319 10.9109 3.90879 10.5186 6.46377C10.4883 6.6611 10.3495 6.82461 10.1598 6.88664C9.97 6.94867 9.76148 6.89867 9.62047 6.75732C9.35347 6.48967 8.80195 6.37231 8.26882 6.55061C7.77417 6.71604 7.40464 7.09998 7.40464 7.72489C7.40464 8.01728 7.16761 8.25431 6.87522 8.25431C5.90415 8.25431 5.21446 8.61405 4.76205 9.12423C4.30091 9.64424 4.05885 10.3528 4.05884 11.0788C4.05883 11.8047 4.30086 12.5132 4.76204 13.0332C5.21449 13.5434 5.90433 13.9032 6.87581 13.9032H9.10388C9.39628 13.9032 9.6333 14.1402 9.6333 14.4326C9.6333 14.725 9.39628 14.962 9.10388 14.962H6.87581C5.6162 14.962 4.63284 14.4833 3.96986 13.7358C3.31561 12.9981 2.99998 12.0297 3 11.0787C3.00002 10.1278 3.31567 9.15939 3.96983 8.42171C4.54616 7.77179 5.36462 7.32506 6.39615 7.21948C6.57686 6.34718 7.21989 5.78493 7.93298 5.54644C8.46869 5.36727 9.09521 5.35448 9.63845 5.55112C10.4365 2.83796 13.0654 1.72078 15.3685 2.05861C16.6274 2.24327 17.8345 2.86279 18.6346 3.92729C19.391 4.93361 19.7478 6.28998 19.4937 7.94051C20.8139 8.99357 21.2364 10.6586 20.878 12.0889C20.4896 13.639 19.1783 14.9357 17.1312 14.9357H15.7934C15.501 14.9357 15.2639 14.6987 15.2639 14.4063C15.2639 14.1139 15.501 13.8769 15.7934 13.8769H17.1312C18.6519 13.8769 19.5704 12.9512 19.8509 11.8316C20.1369 10.6903 19.7536 9.37011 18.6209 8.61302C18.4428 8.49399 18.354 8.27937 18.3959 8.06931C18.7054 6.51765 18.3887 5.36242 17.7882 4.56347C17.1807 3.75523 16.2416 3.25685 15.2148 3.10624ZM12.6716 10.7734C12.964 10.7734 13.2011 11.0104 13.2011 11.3028V20.3097L15.6665 17.8443C15.8732 17.6375 16.2085 17.6375 16.4152 17.8443C16.622 18.051 16.622 18.3863 16.4152 18.593L13.046 21.9622C12.8392 22.169 12.504 22.169 12.2973 21.9622L8.92806 18.593C8.72131 18.3863 8.72131 18.051 8.92806 17.8443C9.13481 17.6375 9.47002 17.6375 9.67677 17.8443L12.1422 20.3097V11.3028C12.1422 11.0104 12.3792 10.7734 12.6716 10.7734Z" fill="#676767"/>
</svg>
