<svg width="24" height="24" viewBox="0 0 24 24" fill="none" xmlns="http://www.w3.org/2000/svg">
<path fill-rule="evenodd" clip-rule="evenodd" d="M12.9091 4.34154C13.8094 3.47105 15.0154 2.98929 16.2674 3.00018C17.5193 3.01107 18.7167 3.51373 19.6019 4.39975C20.487 5.28574 20.9889 6.48418 20.9998 7.73691C21.0107 8.98964 20.5296 10.1966 19.66 11.0979L19.654 11.1041L17.0895 13.6711C17.0895 13.6711 17.0895 13.671 17.0895 13.6711C16.6056 14.1557 16.0231 14.5305 15.3816 14.77C14.7402 15.0095 14.0548 15.1082 13.3718 15.0592C12.6889 15.0103 12.0245 14.8149 11.4238 14.4863C10.823 14.1577 10.2998 13.7037 9.88982 13.155C9.72453 12.9338 9.76985 12.6205 9.99105 12.4552C10.2123 12.2899 10.5256 12.3352 10.6909 12.5564C11.0151 12.9902 11.4287 13.3492 11.9036 13.6089C12.3785 13.8686 12.9036 14.0231 13.4433 14.0618C13.9831 14.1005 14.5248 14.0225 15.0318 13.8332C15.5388 13.6439 15.9993 13.3476 16.3819 12.9644L18.9433 10.4005C19.629 9.68823 20.0084 8.73503 19.9999 7.74559C19.9913 6.75474 19.5942 5.80701 18.8944 5.1065C18.1946 4.406 17.2481 4.00875 16.2587 4.00014C15.2704 3.99155 14.3182 4.37137 13.6066 5.05806L12.139 6.51863C11.9433 6.71342 11.6267 6.71266 11.4319 6.51693C11.2371 6.32119 11.2379 6.00461 11.4336 5.80982L12.9091 4.34154ZM8.61835 9.22998C9.25981 8.99046 9.94524 8.89183 10.6282 8.94078C11.3111 8.98974 11.9755 9.18514 12.5762 9.51371C13.177 9.84228 13.7002 10.2963 14.1102 10.845C14.2755 11.0662 14.2301 11.3795 14.0089 11.5448C13.7877 11.7101 13.4744 11.6648 13.3091 11.4436C12.9849 11.0098 12.5713 10.6508 12.0964 10.3911C11.6215 10.1314 11.0964 9.97692 10.5566 9.93822C10.0169 9.89953 9.47518 9.97748 8.96816 10.1668C8.46115 10.3561 8.0007 10.6524 7.61807 11.0356L5.05668 13.5995C4.37099 14.3118 3.99155 15.265 4.00014 16.2544C4.00874 17.2453 4.40579 18.193 5.10559 18.8935C5.80538 19.594 6.75193 19.9912 7.74133 19.9999C8.72933 20.0085 9.68132 19.6288 10.3928 18.9424L11.8514 17.4824C12.0466 17.287 12.3632 17.2869 12.5585 17.482C12.7539 17.6772 12.7541 17.9938 12.5589 18.1891L11.091 19.6585C10.1906 20.529 8.98455 21.0107 7.73263 20.9998C6.48071 20.9889 5.28325 20.4863 4.39813 19.6003C3.51302 18.7143 3.01106 17.5158 3.00018 16.2631C2.98931 15.0104 3.47039 13.8034 4.33998 12.9021L4.34601 12.8959L6.91048 10.3289C6.91045 10.329 6.9105 10.3289 6.91048 10.3289C7.39442 9.84434 7.97692 9.4695 8.61835 9.22998Z" fill="#676767"/>
</svg>
