<svg width="24" height="25" viewBox="0 0 24 25" fill="none" xmlns="http://www.w3.org/2000/svg">
<path d="M4.74063 19.1328H7.89701L17.3736 19.0953H19.2689C24.323 19.0953 25.5866 12.7473 21.796 10.1933C23.6916 0.611694 10.4242 -0.663259 9.15981 7.63775C7.89672 6.36136 4.73979 7.00019 4.73979 9.55351C-1.5795 9.55351 -1.58064 19.1328 4.74063 19.1328Z" fill="#FFD600"/>
<path d="M12.5 23.1328C12.5 23.409 12.7239 23.6328 13 23.6328C13.2761 23.6328 13.5 23.409 13.5 23.1328L12.5 23.1328ZM13.3536 10.7793C13.1583 10.584 12.8417 10.584 12.6464 10.7793L9.46447 13.9612C9.2692 14.1565 9.2692 14.4731 9.46447 14.6683C9.65973 14.8636 9.97631 14.8636 10.1716 14.6683L13 11.8399L15.8284 14.6683C16.0237 14.8636 16.3403 14.8636 16.5355 14.6683C16.7308 14.4731 16.7308 14.1565 16.5355 13.9612L13.3536 10.7793ZM13.5 23.1328L13.5 11.1328L12.5 11.1328L12.5 23.1328L13.5 23.1328Z" fill="#232323"/>
</svg>
